<svg xmlns="http://www.w3.org/2000/svg"  viewBox="0 0 48 48" width="48px" height="48px"><path d="M 32.519531 1.9824219 A 1.50015 1.50015 0 0 0 31.279297 2.6289062 L 29.320312 5.3710938 C 27.743734 4.4989258 25.931086 4 24 4 C 22.068914 4 20.256266 4.4989258 18.679688 5.3710938 L 16.720703 2.6289062 A 1.50015 1.50015 0 0 0 15.435547 1.984375 A 1.50015 1.50015 0 0 0 14.279297 4.3710938 L 16.277344 7.1679688 C 14.255069 9.162111 13 11.932123 13 15 L 35 15 C 35 11.932123 33.744931 9.162111 31.722656 7.1679688 L 33.720703 4.3710938 A 1.50015 1.50015 0 0 0 32.519531 1.9824219 z M 18.5 9 C 19.328 9 20 9.672 20 10.5 C 20 11.328 19.328 12 18.5 12 C 17.672 12 17 11.328 17 10.5 C 17 9.672 17.672 9 18.5 9 z M 29.5 9 C 30.328 9 31 9.672 31 10.5 C 31 11.328 30.328 12 29.5 12 C 28.672 12 28 11.328 28 10.5 C 28 9.672 28.672 9 29.5 9 z M 9 18 C 7.343 18 6 19.343 6 21 L 6 31 C 6 32.657 7.343 34 9 34 L 10 34 L 10 18 L 9 18 z M 13 18 L 13 34 C 13 35.66 14.34 37 16 37 L 32 37 C 33.66 37 35 35.66 35 34 L 35 18 L 13 18 z M 38 18 L 38 34 L 39 34 C 40.657 34 42 32.657 42 31 L 42 21 C 42 19.343 40.657 18 39 18 L 38 18 z M 15 40 L 15 42.5 C 15 44.433 16.567 46 18.5 46 C 20.433 46 22 44.433 22 42.5 L 22 40 L 15 40 z M 26 40 L 26 42.5 C 26 44.433 27.567 46 29.5 46 C 31.433 46 33 44.433 33 42.5 L 33 40 L 26 40 z"/></svg>